:SAMPLES-PER-SECOND 30
:FRAME-RANGE 1-3358
:FULLY-SPECIFIED
:DEGREES
630
root  12.8427 38.0052 40.0079 -174.616 42.6831 178.991
RightUpLeg  -15.2781 3.31594 -20.5318
RightLeg  26.4969 -4.89804 -2.87136
RightFoot  -14.4786 0.0639818 5.91988
RightToes  -1.11029e-010 1.2921e-014 -6.02303e-014
Spine  3.68794 3.32483 8.22287
Spine1  5.55429 5.29246 -7.70479
HEad  -6.75863 -12.4355 2.97732
LeftShoulder1  1.57795 -2.76022 -19.7936
LeftArm  9.38303 -2.85842 -56.2691
LeftForeArm  41.6801 -2.05499 -14.3543
LeftHand  -0.00565371 5.87859 3.44632
RightShoulder  2.8059 7.52591 19.5858
RightArm  -36.7559 36.5776 45.2376
RightForeArm  19.462 -4.72283 -6.52509
RightHand  -0.0665824 -5.0459 -18.7478
LeftUpLeg  -26.0221 3.85342 5.53912
LeftLeg  30.0319 -0.931343 -0.221286
LeftFoot  -10.7512 0.105187 -7.92565
LeftToes  -1.90334e-010 -8.83595e-011 4.99953e-011
631
root  13.3642 37.9863 40.5306 -174.909 42.942 178.915
RightUpLeg  -15.1458 -0.280527 -20.7159
RightLeg  26.0739 -9.84697 -5.42127
RightFoot  -12.682 -0.0165961 5.93662
RightToes  -1.11029e-010 1.2921e-014 -6.02303e-014
Spine  3.63978 3.13743 8.25955
Spine1  5.40918 5.05581 -7.51025
HEad  -6.2783 -11.9889 3.5127
LeftShoulder1  1.55653 -2.6738 -19.8121
LeftArm  9.24128 -3.58858 -55.548
LeftForeArm  41.4945 -1.79932 -14.3832
LeftHand  -0.00800329 6.08321 3.51805
RightShoulder  2.76938 7.11149 20.3148
RightArm  -37.6585 34.0965 42.3124
RightForeArm  21.5615 -4.79017 -6.09305
RightHand  -0.0701369 -5.02568 -18.8859
LeftUpLeg  -25.4046 5.31112 6.64435
LeftLeg  29.2852 -1.90658 -0.800985
LeftFoot  -10.1338 0.15372 -8.82251
LeftToes  -1.90334e-010 -8.83595e-011 4.99953e-011
632
root  13.9721 38.0203 41.0844 -175.102 44.3134 179.1
RightUpLeg  -15.6953 -5.36617 -19.8142
RightLeg  26.2747 -14.7564 -8.00047
RightFoot  -10.4283 -0.110032 4.91661
RightToes  -1.11029e-010 1.2921e-014 -6.02303e-014
Spine  3.30673 3.06008 8.64882
Spine1  5.49 4.98669 -7.47023
HEad  -5.28451 -11.5272 3.84676
LeftShoulder1  1.523 -2.48172 -20.1166
LeftArm  8.50431 -3.7108 -54.0918
LeftForeArm  40.6893 -1.60053 -14.3321
LeftHand  -0.00759243 6.05957 3.66364
RightShoulder  2.73512 6.78456 20.8722
RightArm  -37.509 32.1001 40.5262
RightForeArm  22.8376 -4.91409 -5.35283
RightHand  -0.123513 -4.70339 -19.1543
LeftUpLeg  -24.0588 6.57149 8.25437
LeftLeg  27.9646 -1.83342 -0.705555
LeftFoot  -9.29159 0.234974 -10.0106
LeftToes  -1.90334e-010 -8.83595e-011 4.99953e-011
633
root  14.7006 38.0696 41.6844 -175.497 46.1177 179.188
RightUpLeg  -16.4663 -11.5713 -18.0503
RightLeg  26.7335 -18.4625 -10.0396
RightFoot  -7.22913 -0.190692 3.94041
RightToes  -1.11029e-010 1.2921e-014 -6.02303e-014
Spine  2.59196 2.83618 8.42126
Spine1  5.67189 4.59915 -6.87294
HEad  -3.29028 -10.7471 3.71009
LeftShoulder1  1.48659 -2.34442 -20.1108
LeftArm  5.58514 -2.77308 -52.653
LeftForeArm  40.0903 -0.805953 -14.0155
LeftHand  -0.00590097 6.1758 3.9572
RightShoulder  2.6964 6.51951 21.2308
RightArm  -36.7359 30.5872 39.9434
RightForeArm  24.6232 -5.04979 -4.51326
RightHand  -0.177731 -4.3801 -19.3172
LeftUpLeg  -22.0613 6.98377 10.1441
LeftLeg  26.182 -0.688792 -0.0243602
LeftFoot  -8.06044 0.389405 -11.8819
LeftToes  -1.90334e-010 -8.83595e-011 4.99953e-011
634
root  15.5318 38.169 42.2904 -175.929 47.9785 179.504
RightUpLeg  -17.0934 -17.5598 -15.7493
RightLeg  27.4472 -18.5239 -10.3619
RightFoot  -3.62911 -0.074755 0.742653
RightToes  -1.11029e-010 1.2921e-014 -6.02303e-014
Spine  1.28147 2.48116 8.48173
Spine1  6.28818 3.92966 -5.64021
HEad  -0.254834 -9.78164 3.24737
LeftShoulder1  1.45781 -2.26392 -19.9641
LeftArm  2.63506 -1.29269 -51.082
LeftForeArm  39.2007 0.150257 -13.614
LeftHand  -0.0060647 6.50749 4.31353
RightShoulder  2.6641 6.34094 21.4142
RightArm  -36.1056 29.2444 40.2092
RightForeArm  27.5588 -4.92872 -3.87803
RightHand  -0.236566 -4.02026 -19.2696
LeftUpLeg  -19.2054 6.87265 12.3653
LeftLeg  23.6139 0.960504 0.795806
LeftFoot  -6.47436 0.63512 -13.9784
LeftToes  -1.90334e-010 -8.83595e-011 4.99953e-011
635
root  16.5594 38.0889 43.0559 -177.006 49.9856 179.283
RightUpLeg  -16.8664 -17.8958 -14.7839
RightLeg  28.6273 -15.9665 -9.45374
RightFoot  -3.30378 -0.36017 4.80225
RightToes  -1.11029e-010 1.2921e-014 -6.02303e-014
Spine  0.0961053 2.06661 7.62877
Spine1  6.58202 3.32469 -5.10391
HEad  3.80519 -8.5681 2.30655
LeftShoulder1  1.43007 -2.17136 -19.8948
LeftArm  1.16583 0.390185 -49.1581
LeftForeArm  38.1288 0.92278 -13.4191
LeftHand  -0.00731737 6.28641 3.96705
RightShoulder  2.60181 6.01483 21.7289
RightArm  -35.154 27.7904 40.8077
RightForeArm  29.634 -3.75349 -2.90465
RightHand  -0.265521 -3.86795 -19.5761
LeftUpLeg  -16.2721 6.32545 14.6674
LeftLeg  21.9219 3.01015 1.66563
LeftFoot  -5.26903 0.90827 -16.4359
LeftToes  -1.90334e-010 -8.83595e-011 4.99953e-011
636
root  17.6765 37.9043 43.9288 -177.73 52.3742 179.826
RightUpLeg  -15.8843 -17.5995 -13.1264
RightLeg  29.6077 -12.8181 -7.98961
RightFoot  -7.52127 -0.357129 9.15279
RightToes  -1.11029e-010 1.2921e-014 -6.02303e-014
Spine  -0.411871 1.68209 7.13813
Spine1  6.27506 2.77148 -4.60078
HEad  8.01744 -7.02566 1.20122
LeftShoulder1  1.29715 -1.67135 -19.841
LeftArm  0.202254 2.21004 -47.3748
LeftForeArm  38.431 1.38575 -13.1862
LeftHand  -0.00978149 6.03768 3.42602
RightShoulder  2.4905 5.48611 22.1623
RightArm  -33.8291 26.5808 41.4929
RightForeArm  30.137 -2.27739 -1.71033
RightHand  -0.258441 -3.91038 -19.5773
LeftUpLeg  -13.2157 5.99616 17.7402
LeftLeg  21.023 4.9822 2.4419
LeftFoot  -4.09153 1.26834 -19.4719
LeftToes  -1.90334e-010 -8.83595e-011 4.99953e-011
